<?xml version="1.0" encoding="utf-8"?>
<!-- Generator: Adobe Illustrator 15.1.0, SVG Export Plug-In . SVG Version: 6.00 Build 0)  -->
<!DOCTYPE svg PUBLIC "-//W3C//DTD SVG 1.1 Tiny//EN" "http://www.w3.org/Graphics/SVG/1.1/DTD/svg11-tiny.dtd">
<svg version="1.1" baseProfile="tiny" id="Layer_1" xmlns="http://www.w3.org/2000/svg" xmlns:xlink="http://www.w3.org/1999/xlink"
	 x="0px" y="0px" width="515.583px" height="93.625px" viewBox="0 0 515.583 93.625" overflow="inherit" xml:space="preserve">
<g>
	<path fill="#F68B1F" d="M26,0c-5,0.404-9.734,0.749-13.983,1.019C7.764,1.292,4,1.488,0,1.624v4.188h7v82H0v4h35v-4h-9V0z"/>
	<path fill="#F68B1F" d="M123.825,44.272c-4.841-5.451-10.941-8.182-18.316-8.182c-3.845,0-7.122,0.867-10.081,2.579
		C92.466,40.389,90,42.994,88,46.472V0c-5,0.404-9.285,0.749-13.672,1.019C69.941,1.292,66,1.488,61,1.624v4.188h8v81.977
		l-26.822-34.18l14.21-11.797H67v-4H38v4h12.692L26.535,62.095l19.749,25.717H39v4h22.34h13.167H88v-8.497
		c2,3.479,4.452,6.073,7.396,7.772c2.943,1.692,6.287,2.537,10.178,2.537c7.235,0,13.276-2.747,18.178-8.243
		c4.912-5.492,7.346-12.288,7.346-20.391C131.099,56.628,128.662,49.717,123.825,44.272z M110,80.94c0,3.3-0.575,5.565-1.704,6.782
		c-1.128,1.221-3.127,1.832-5.973,1.832c-4.297,0-7.674-1.784-10.382-5.36C89.222,80.619,88,75.916,88,70.085V59.703
		c0-5.967,1.279-10.728,4.105-14.285c2.825-3.547,6.526-5.32,11.232-5.32c2.435,0,4.145,0.677,5.157,2.031
		c1.021,1.362,1.505,3.692,1.505,6.991V80.94z"/>
</g>
<g>
	<path fill="#FFFFFF" d="M169.302,47.487h2.593v31.209h0.115l13.956-17.137h3.002l-9.185,11.19L190.5,89.822h-2.887l-9.36-15.131
		l-6.358,7.422v7.709h-2.593V47.487z"/>
	<path fill="#FFFFFF" d="M205.236,60.855c6.713,0,10.835,4.767,10.835,13.069c0,0.709,0,1.411-0.118,2.12h-20.375
		c0.118,7.129,4.298,12.251,10.66,12.251c3.059,0,5.474-1.003,7.594-2.536l1.06,2.006c-2.239,1.354-4.768,2.766-8.891,2.766
		c-7.243,0-13.071-5.537-13.071-14.779S198.936,60.855,205.236,60.855z M213.597,74.046c0-7.242-3.238-10.954-8.3-10.954
		c-4.829,0-9.127,4.177-9.718,10.954H213.597z"/>
	<path fill="#FFFFFF" d="M219.323,61.56h2.826l6.358,17.724c0.885,2.709,1.945,5.538,2.83,8.125h0.233
		c0.942-2.587,1.945-5.416,2.887-8.125l6.358-17.724h2.65l-10.481,28.263h-3.062L219.323,61.56z"/>
	<path fill="#FFFFFF" d="M248.419,52.434c0-1.472,1.061-2.354,2.354-2.354c1.296,0,2.356,0.881,2.356,2.354
		c0,1.354-1.06,2.296-2.356,2.296C249.479,54.73,248.419,53.788,248.419,52.434z M249.419,61.56h2.593v28.263h-2.593V61.56z"/>
	<path fill="#FFFFFF" d="M260.839,61.56h2.238l0.236,4.356h0.176c2.884-2.881,5.828-5.061,9.715-5.061
		c5.828,0,8.539,3.533,8.539,10.834v18.133h-2.593V72.041c0-6.004-1.884-8.833-6.477-8.833c-3.356,0-5.771,1.769-9.242,5.301v21.313
		h-2.593V61.56z"/>
	<path fill="#FFFFFF" d="M290.522,48.547h8.658v10.13l-0.236,4.473c2.238-1.999,5.004-3.237,7.712-3.237
		c7.067,0,11.484,5.83,11.484,14.778c0,10.066-6.008,15.84-12.309,15.84c-2.59,0-5.298-1.297-7.594-3.769h-0.236l-0.706,3.06h-6.773
		V48.547z M303.83,83.467c3.005,0,5.419-2.593,5.419-8.597c0-5.244-1.59-7.895-5.064-7.895c-1.766,0-3.356,0.824-5.004,2.65v11.957
		C300.71,82.994,302.357,83.467,303.83,83.467z"/>
	<path fill="#FFFFFF" d="M336.264,59.913c8.303,0,12.423,6.066,12.423,14.012c0,1.533-0.176,2.944-0.352,3.653h-17.487
		c0.767,4.414,3.707,6.355,7.594,6.355c2.178,0,4.181-0.646,6.301-1.941l2.887,5.243c-3.005,2.057-6.892,3.296-10.362,3.296
		c-8.364,0-14.78-5.652-14.78-15.31C322.486,65.743,329.257,59.913,336.264,59.913z M341.328,72.22c0-3.359-1.414-5.71-4.889-5.71
		c-2.708,0-5.062,1.82-5.653,5.71H341.328z"/>
	<path fill="#FFFFFF" d="M354.595,60.619h7.067l0.587,5.124h0.236c2.121-3.947,5.298-5.83,8.304-5.83
		c1.647,0,2.647,0.236,3.475,0.588l-1.415,7.478c-1.061-0.294-1.941-0.473-3.181-0.473c-2.178,0-4.886,1.418-6.416,5.358v16.958
		h-8.657V60.619z"/>
	<path fill="#FFFFFF" d="M389.075,59.913c7.357,0,14.188,5.594,14.188,15.309s-6.831,15.31-14.188,15.31
		c-7.419,0-14.25-5.595-14.25-15.31S381.656,59.913,389.075,59.913z M389.075,83.524c3.532,0,5.355-3.238,5.355-8.303
		c0-5.065-1.823-8.304-5.355-8.304c-3.593,0-5.359,3.238-5.359,8.304C383.716,80.286,385.482,83.524,389.075,83.524z"/>
	<path fill="#FFFFFF" d="M409.047,60.619h7.067l0.588,3.712h0.236c2.472-2.356,5.416-4.418,9.363-4.418
		c6.358,0,9.066,4.476,9.066,11.776v18.133h-8.654V72.808c0-4.241-1.121-5.538-3.593-5.538c-2.178,0-3.532,1.003-5.416,2.829v19.724
		h-8.658V60.619z"/>
	<path fill="#FFFFFF" d="M441.759,51.786c0-2.647,2.12-4.474,5.004-4.474c2.944,0,5.008,1.827,5.008,4.474
		c0,2.651-2.063,4.535-5.008,4.535C443.879,56.321,441.759,54.437,441.759,51.786z M442.464,60.619h8.658v29.203h-8.658V60.619z"/>
	<path fill="#FFFFFF" d="M458.32,48.547h8.657V81.11c0,1.826,0.824,2.414,1.53,2.414c0.354,0,0.587,0,1.06-0.121l1.061,6.419
		c-0.942,0.415-2.414,0.709-4.355,0.709c-5.95,0-7.952-3.89-7.952-9.772V48.547z"/>
	<path fill="#FFFFFF" d="M474.978,48.547h8.657V81.11c0,1.826,0.824,2.414,1.53,2.414c0.354,0,0.588,0,1.061-0.121l1.06,6.419
		c-0.941,0.415-2.414,0.709-4.355,0.709c-5.949,0-7.952-3.89-7.952-9.772V48.547z"/>
	<path fill="#FFFFFF" d="M506.929,71.038c-0.179-2.587-1.472-4.234-4.596-4.234c-2.472,0-4.943,0.996-7.77,2.65l-3.062-5.716
		c3.711-2.236,7.892-3.825,12.483-3.825c7.477,0,11.599,4.239,11.599,13.188v16.722h-7.067l-0.645-3.002h-0.179
		c-2.472,2.178-5.241,3.711-8.536,3.711c-5.299,0-8.655-3.89-8.655-8.833C490.501,75.573,495.388,72.22,506.929,71.038z
		 M502.101,83.818c2.002,0,3.296-0.945,4.828-2.472v-5.122c-6.183,0.823-8.185,2.586-8.185,4.828
		C498.744,82.937,500.037,83.818,502.101,83.818z"/>
</g>
</svg>
